<?xml version="1.0" encoding="UTF-8"?>
<svg id="Camada_1" xmlns="http://www.w3.org/2000/svg" version="1.1" viewBox="0 0 3643.1 813.51">
  <!-- Generator: Adobe Illustrator 29.6.1, SVG Export Plug-In . SVG Version: 2.1.1 Build 9)  -->
  <defs>
    <style>
      .st0 {
        fill: #f6f2f9;
      }

      .st1 {
        fill: none;
        stroke: #f6f2f9;
        stroke-miterlimit: 10;
        stroke-width: 21.12px;
      }
    </style>
  </defs>
  <g>
    <polygon class="st1" points="794.16 346.4 248.07 346.4 248.07 197.51 874.63 197.51 973.72 14.19 973.72 13.81 10.56 13.81 10.56 802.95 248.07 802.95 248.07 524.01 698.2 524.01 794.16 346.4"/>
    <path class="st1" d="M3556.51,61.2c-42.87-32.82-92.54-45.96-241.48-50.64h-420.52c-.89.04-1.73.04-2.62.08h-1786.55l-426.48,789.14h272.18l75.48-139.64h509.77l75.44,139.64h272.18l-313.03-579.17h405.28v579.17h251.53V220.61h357c-5.2,45.83-7.27,103.78-7.27,178.08,0,225.76,16.14,301.79,76.03,347.87,58.75,44.9,130.18,52.97,453.85,52.97s390.49-8.07,449.21-52.97c58.75-44.94,76.03-122.11,76.03-343.27s-17.28-297.15-76.03-342.09ZM1110.07,493.81l172.5-367.73h.93l172.46,367.73h-345.89ZM3364.16,572.63c-.17.13-.34.25-.46.38-34.09,25.89-83.38,16.13-107.33-19.35l-58.96-87.35c-44.18-65.43-140.57-65.17-184.41.46l-57.95,86.76c-24.16,36.11-74.25,45.96-108.68,19.47-.17-.13-.34-.25-.51-.38-26.53-21.88-34.59-53.01-34.59-148.59,0-155.52,12.67-191.21,70.28-206.17,32.23-9.21,64.5-10.39,223.44-10.39,216.56,0,243.04,3.46,267.24,36.87,20.74,26.48,26.48,70.24,26.48,180.82,0,93.3-8.02,126.71-34.55,147.45Z"/>
  </g>
  <path class="st0" d="M3104.98,214.86c-158.94,0-191.21,1.18-223.44,10.39-57.61,14.95-70.28,50.64-70.28,206.17,0,95.59,8.07,126.71,34.59,148.59.17.13.34.25.51.38,34.42,26.48,84.52,16.64,108.68-19.47l57.95-86.76c43.84-65.64,140.23-65.89,184.41-.46l58.96,87.35c23.95,35.48,73.24,45.24,107.33,19.35.13-.13.3-.25.46-.38,26.53-20.74,34.55-54.15,34.55-147.45,0-110.58-5.74-154.34-26.48-180.82-24.2-33.41-50.69-36.87-267.24-36.87Z"/>
  <polygon class="st0" points="1282.57 133.47 1110.07 501.19 1455.95 501.19 1283.5 133.47 1282.57 133.47"/>
</svg>