<?xml version="1.0" encoding="UTF-8"?>
<svg id="Camada_1" xmlns="http://www.w3.org/2000/svg" version="1.1" xmlns:xlink="http://www.w3.org/1999/xlink" viewBox="0 0 3642.4 796.86">
  <!-- Generator: Adobe Illustrator 29.6.1, SVG Export Plug-In . SVG Version: 2.1.1 Build 9)  -->
  <defs>
    <style>
      .st0 {
        fill: url(#Gradiente_sem_nome_671);
      }

      .st1 {
        fill: url(#Gradiente_sem_nome_67);
      }
    </style>
    <linearGradient id="Gradiente_sem_nome_67" data-name="Gradiente sem nome 67" x1="0" y1="400.07" x2="968.59" y2="400.07" gradientUnits="userSpaceOnUse">
      <stop offset="0" stop-color="#5b057f"/>
      <stop offset="1" stop-color="#1d0d60"/>
    </linearGradient>
    <linearGradient id="Gradiente_sem_nome_671" data-name="Gradiente sem nome 67" x1="672.06" y1="396.84" x2="3642.4" y2="396.84" xlink:href="#Gradiente_sem_nome_67"/>
  </defs>
  <polygon class="st1" points="968.59 3.27 968.59 3.65 868.94 188 238.85 188 238.85 337.73 788.02 337.73 691.52 516.34 238.85 516.34 238.85 796.86 0 796.86 0 3.27 968.59 3.27"/>
  <path class="st0" d="M3565.95,50.93c-43.11-33-93.07-46.21-242.84-50.93h-422.9c-.89.04-1.74.04-2.63.09h-1796.63l-428.89,793.59h273.72l75.91-140.43h512.65l75.86,140.43h273.72l-314.79-582.44h407.56v582.44h252.95V211.24h359.01c-5.22,46.09-7.31,104.36-7.31,179.08,0,227.04,16.23,303.49,76.46,349.84,59.08,45.15,130.91,53.27,456.41,53.27s392.7-8.11,451.74-53.27c59.08-45.2,76.46-122.8,76.46-345.21s-17.37-298.82-76.46-344.02ZM1105.71,485.97l173.47-369.8h.93l173.43,369.8h-347.84ZM3372.51,565.24c-.17.13-.34.25-.47.38-34.28,26.04-83.85,16.23-107.93-19.45l-59.3-87.84c-44.43-65.8-141.36-65.54-185.45.47l-58.28,87.25c-24.3,36.32-74.67,46.21-109.29,19.58-.17-.13-.34-.26-.51-.38-26.68-22-34.79-53.31-34.79-149.43,0-156.4,12.74-192.29,70.68-207.33,32.41-9.26,64.86-10.45,224.7-10.45,217.78,0,244.41,3.48,268.75,37.08,20.86,26.63,26.63,70.64,26.63,181.84,0,93.83-8.07,127.43-34.75,148.29Z"/>
</svg>