<?xml version="1.0" encoding="UTF-8"?>
<svg id="Camada_1" xmlns="http://www.w3.org/2000/svg" version="1.1" xmlns:xlink="http://www.w3.org/1999/xlink" viewBox="0 0 295.47 196.24">
  <!-- Generator: Adobe Illustrator 29.6.1, SVG Export Plug-In . SVG Version: 2.1.1 Build 9)  -->
  <defs>
    <style>
      .st0 {
        fill: url(#Gradiente_sem_nome_21);
      }

      .st1 {
        fill: url(#Gradiente_sem_nome_2);
      }

      .st2 {
        fill: #f6f2f9;
      }

      .st3 {
        fill: none;
      }
    </style>
    <linearGradient id="Gradiente_sem_nome_2" data-name="Gradiente sem nome 2" x1="0" y1="111.27" x2="295.47" y2="111.27" gradientTransform="translate(0 209.39) scale(1 -1)" gradientUnits="userSpaceOnUse">
      <stop offset="0" stop-color="#5b057f"/>
      <stop offset="1" stop-color="#1d0d60"/>
    </linearGradient>
    <linearGradient id="Gradiente_sem_nome_21" data-name="Gradiente sem nome 2" x1="0" y1="134.89" x2="295.47" y2="134.89" xlink:href="#Gradiente_sem_nome_2"/>
  </defs>
  <path class="st3" d="M229.99,103.4c0,23.14-2.26,31.42-9.68,36.56-.05.03-.09.06-.14.09-9.55,6.42-23.34,4-30.05-4.8l-16.51-21.66c-12.37-16.22-39.37-16.16-51.65.11l-16.23,21.51c-6.76,8.96-20.79,11.4-30.43,4.83-.05-.03-.1-.06-.14-.1-7.42-5.43-9.68-13.14-9.68-36.85,0-1.2,0-2.38.01-3.53,0,1.15-.01,2.32-.01,3.53,0,23.71,2.26,31.42,9.68,36.85.05.03.1.07.14.1,9.65,6.57,23.67,4.13,30.43-4.83l16.23-21.51c12.28-16.28,39.28-16.34,51.65-.11l16.51,21.66c6.71,8.8,20.5,11.22,30.05,4.8.05-.03.09-.06.14-.09h0c7.42-5.14,9.68-13.42,9.68-36.56s-1.07-33.62-4.58-40.62c3.51,7,4.58,18.34,4.58,40.62Z"/>
  <path class="st2" d="M75.16,139.96s.1.07.14.1c9.65,6.57,23.67,4.13,30.43-4.83l16.23-21.51c12.28-16.28,39.28-16.34,51.65-.11l16.51,21.66c6.71,8.8,20.5,11.22,30.05,4.8.05-.03.09-.06.14-.09,7.42-5.14,9.68-13.42,9.68-36.56s-1.07-33.62-4.58-40.62c-.81-1.61-1.75-3-2.84-4.23-6.77-8.28-14.19-9.14-74.84-9.14-44.52,0-53.55.29-62.58,2.57-15.63,3.59-19.45,12.02-19.67,47.6,0,1.15-.01,2.32-.01,3.53,0,23.71,2.26,31.42,9.68,36.85Z"/>
  <path class="st1" d="M274.18,13.14h0C257.73,2,237.74,0,147.74,0S37.74,2,21.29,13.14C4.84,24.28,0,43.7,0,96.83c0,55.99,4.52,74.84,21.29,86.27,16.45,11.14,36.45,13.14,127.09,13.14s109.35-2,125.8-13.14c16.45-11.14,21.29-30.28,21.29-85.12s-4.84-73.7-21.29-84.83ZM220.32,139.97h0s-.09.06-.14.09c-9.55,6.42-23.34,4-30.05-4.8l-16.51-21.66c-12.37-16.22-39.37-16.16-51.65.11l-16.23,21.51c-6.76,8.96-20.79,11.4-30.43,4.83-.05-.03-.1-.07-.14-.1-7.42-5.43-9.68-13.14-9.68-36.85,0-1.21,0-2.38.01-3.53.22-35.58,4.04-44.01,19.67-47.6,9.03-2.28,18.06-2.57,62.58-2.57h0c60.64,0,68.06.86,74.84,9.14,1.09,1.23,2.03,2.62,2.84,4.23,3.51,6.99,4.58,18.34,4.58,40.62s-2.26,31.42-9.68,36.56Z"/>
  <path class="st2" d="M85.16,51.99c9.03-2.28,18.06-2.57,62.58-2.57,60.64,0,68.06.86,74.84,9.14,1.09,1.23,2.03,2.61,2.84,4.23-.81-1.62-1.75-3-2.84-4.23-6.77-8.28-14.19-9.14-74.84-9.14h0c-44.52,0-53.55.29-62.58,2.57-15.63,3.59-19.45,12.02-19.67,47.6.22-35.58,4.04-44.01,19.67-47.6Z"/>
  <path class="st0" d="M85.16,51.99c9.03-2.28,18.06-2.57,62.58-2.57,60.64,0,68.06.86,74.84,9.14,1.09,1.23,2.03,2.61,2.84,4.23-.81-1.62-1.75-3-2.84-4.23-6.77-8.28-14.19-9.14-74.84-9.14h0c-44.52,0-53.55.29-62.58,2.57-15.63,3.59-19.45,12.02-19.67,47.6.22-35.58,4.04-44.01,19.67-47.6Z"/>
</svg>